<svg xmlns="http://www.w3.org/2000/svg" width="140" height="80" viewBox="-5.566923 -2.4262925 48.246666 14.557755"><path d="M2.90439 3.26887l-.31786-.1845-.16122-.08502-.16157-.08043-.1009-.0568c-.0455-.02364-.10583-.05186-.17638-.08502C1.30524 2.44126.96234 2.17632.96728 1.6895c.01517-.51576.4893-.96485 1.24108-.88936.26952.02117.57926.1397.77223.3295.03986.0395.10407.0448.15028.01164l.47801-.34114c.0628-.0448.07162-.13052.018-.18485C3.2681.2512 2.75092.04942 2.28877.01026c-.575-.05644-1.17014.12312-1.58359.45897-.7567.629-.7821 1.73566-.0455 2.41194.13122.1277.29244.24095.48436.35948.07549.04233.15628.08961.242.1323l.10583.05185.05539.02858.05045.02364c.05856.0254.10195.04833.13264.06385.01729.0088.0448.02328.06138.03281l.0635.03563c1.02377.52493 1.38219.80892 1.32645 1.4425-.02999.3168-.16616.56763-.40852.75672-.29739.22225-.72143.33585-1.13488.28364h-.01023c-.00988 0-.02011 0-.02505-.005l-.08079-.0141c-.08572-.019-.1665-.0476-.25223-.0804-.2226-.08854-.40923-.2212-.5528-.38947-.04375-.05115-.12171-.06209-.17922-.0254l-.47942.30375c-.06456.04092-.07761.12488-.02964.18239.24518.29457.55492.51399.93345.66145.13124.0522.26741.0949.40852.12312.0455.01.08079.019.121.0236.01023.005.02011.005.03528.005h.01023l.00494.005c.09596.01.19191.0141.28752.0141 1.14017 0 2.09338-.69992 2.19427-1.778.04551-.54858-.13088-1.01213-.52952-1.40018-.15134-.15593-.35313-.30727-.5902-.44909M21.0504.14665h-.01553c-.04868-.0021-.07832.02857-.09666.07338l-2.67688 6.55143c-.0127.0307.0127.0631.0494.0631h.82338c.02187 0 .04163-.0123.04939-.0307l.39193-.95038c.0078-.0187.02752-.03104.0494-.03104h2.29481c.02258 0 .03881-.0194.0321-.03845l-.24624-.7045c-.0056-.01658-.02293-.02787-.04233-.02787h-1.69439c-.03634 0-.06174-.03175-.04974-.06244l1.0721-2.77248c.01763-.0455.08254-.0455.09983.00035l1.0474 2.77248.68721 1.81399c.0078.0187.02752.031.04974.031h.82374c.03634 0 .06174-.0321.04974-.0628L21.14036.21358c-.01482-.03775-.04974-.06491-.08996-.06703M10.65072.05772H5.26168c-.0836 0-.1517.06068-.1517.13546v.52529c0 .07514.0681.13582.1517.13582H7.4348c.03422 0 .0621.0247.0621.05539v5.8695c0 .0307.02786.0554.06208.0554h.774c.03457 0 .06244-.0247.06244-.0554V.90969c0-.0307.02787-.0554.06209-.0554h1.32997c.00212 0 .00353-.0014.8636-.0032.08325 0 .15099-.06067.15099-.13546V.19316c0-.0748-.06774-.13547-.15134-.13547m4.59798 4.64385c-.0335-.05115-.01693-.11853.0367-.15064.76164-.45614 1.2333-1.20438 1.2333-2.05281 0-1.36666-1.25236-2.44016-2.84303-2.44016h-1.02694c-.08396 0-.1517.0642-.1517.14358v6.48476c0 .0794.06774.14393.1517.14393h.58985c.0836 0 .1517-.0646.1517-.14393V5.09312c0-.05962.05009-.1083.11253-.109l.22542-.0032a3.50556 3.50556 0 00.54646-.0561c.04656-.0085.09419.01059.11923.04905l1.17652 1.79316c.02787.042.07655.0677.12876.0677h.80998c.05962 0 .09596-.0621.06456-.10972zm-1.5307-.51506h-.21378c-.0628 0-.11395-.04904-.11395-.10936V.96632c0-.06031.05115-.10935.11395-.10935h.17145c1.11513 0 1.9498.70943 1.9498 1.64112 0 .92675-.83467 1.66934-1.90747 1.6884M29.3104 1.05364c-.7186-.6089-1.7018-.96731-2.806-.98178h-.90593c-.06315 0-.1143.04904-.1143.10936V6.7256c0 .0603.05115.109.1143.109h.93733c1.09926-.0236 2.07187-.38698 2.78518-1.00505.70274-.61842 1.11514-1.46297 1.11514-2.39254 0-.92992-.4124-1.7653-1.12572-2.38337m-2.79047 4.98369h-.02822c-.06315 0-.1143-.049-.1143-.10936V.97885c0-.06032.05115-.10936.1143-.10936h.0021c1.77024.01905 3.04906 1.09961 3.04906 2.56752 0 1.4485-1.30528 2.56716-3.02295 2.60032m5.10216.73445L34.23017.21364c.01517-.03775.04974-.06491.0903-.06703h.01553c.04833-.0021.07832.02858.09666.07338l2.67688 6.55144c.0127.0307-.01305.0631-.0494.0631h-.82338c-.02222 0-.04198-.012-.04939-.0307l-.39228-.95038c-.0074-.0187-.02716-.0307-.0494-.0307h-2.29481c-.02258 0-.03845-.01975-.03175-.0388l.24624-.7045c.0056-.01658.02293-.02752.04198-.02752h1.69474c.03598 0 .06138-.0321.04974-.06279l-1.0721-2.77248c-.01798-.04551-.08254-.04551-.09983.00035L33.2325 4.9895l-1.7466 4.61646a.15307.15307 0 01-.14323.0991h-.79304c-.05433 0-.09137-.055-.07091-.10548zM9.83312 9.65976c-.018-.0176-.02717-.0388-.02717-.0642V7.90823c0-.0265.00882-.048.02646-.0649.01764-.0173.03951-.0258.06562-.0258h.49036c.07514 0 .1464.0134.21414.0402.06738.0268.12664.0646.17709.11324.0508.0487.08996.10548.11818.17075.02822.0653.04233.1351.04233.21025 0 .0653-.01058.1263-.0321.1838-.02117.0575-.05186.10936-.09172.15628-.03916.0455-.08537.084-.13935.11536-.05433.031-.11218.0526-.17462.0642l.42333.67734a.09719.09719 0 01.01164.0466c0 .0166-.00494.0325-.01446.0473-.00988.0152-.02258.0261-.0381.0332-.0127.007-.02681.01-.04234.01-.01552 0-.03033-.004-.04445-.0124-.0141-.008-.0254-.0198-.03421-.0342l-.46567-.75741H9.9901v.71366c0 .0254-.00917.0466-.02716.0642-.018.0176-.03951.0261-.06491.0261-.0254 0-.04692-.008-.06491-.0261m.55703-.96202c.05151 0 .09949-.009.14429-.0275.0448-.0187.08431-.0444.11818-.0776.03316-.0328.05856-.0706.0769-.1129.018-.0423.02682-.0864.02682-.13228 0-.0487-.00917-.0942-.02787-.13653a.34406.34406 0 00-.07726-.11148c-.03316-.0321-.07232-.0571-.11818-.0744-.04586-.0176-.09454-.0265-.14605-.0265H9.9901v.6992zm1.26242.95825c-.01552-.018-.02328-.0395-.02328-.0649v-1.6817c0-.0261.00917-.048.02751-.0656.0187-.0176.04092-.0261.06738-.0261h.83326c.0254 0 .04692.008.06421.0261.01764.0176.02646.0395.02646.0656 0 .0254-.00882.0469-.02646.0649-.01729.018-.0388.0272-.0642.0272h-.74437v.66112h.54892c.02611-.00071.04798.007.06562.025.01764.0173.02646.0392.02646.0656 0 .0254-.00882.0466-.02646.0635-.01764.0169-.0395.0254-.06562.0254h-.54892v.66146h.74436c.0254 0 .04692.008.0642.0261.01765.0176.02647.0388.02647.0642 0 .0265-.00882.0483-.02646.0663-.01729.018-.0388.0268-.0642.0258h-.8435c-.0254-.002-.04586-.012-.06138-.03m1.98293.02193c-.06386-.018-.12347-.0434-.17886-.0765-.05433-.031-.10195-.0684-.14217-.11183-.04057-.043-.07126-.0896-.09278-.13935a.1096.1096 0 01-.01164-.0497c0-.0311.01658-.0561.04974-.0759.01552-.008.02893-.0116.04057-.0116.02752 0 .05574.0187.08467.0554.03598.0762.09701.13723.18273.18415.08361.0455.17498.0684.27447.0684a.53577.53577 0 00.15592-.0233c.0508-.0155.09596-.0388.13582-.0702.04269-.0328.07656-.0727.1009-.1189.02399-.0462.03633-.0984.03633-.15697 0-.0526-.012-.0977-.03563-.13547-.02399-.0381-.0582-.0716-.103-.1009a.67038.67038 0 00-.12136-.06c-.04375-.0162-.10337-.0374-.17921-.0628-.16863-.0399-.29845-.0938-.38982-.16193-.1196-.0885-.17957-.20037-.17957-.3355 0-.073.01588-.1404.04798-.20213.0321-.0621.07655-.11465.133-.1584.05362-.042.1143-.0744.18238-.0974.06809-.0226.13723-.0342.20744-.0342.1157 0 .22084.0229.31503.0688.09842.0494.1725.11712.2219.20285.00705.0106.01023.0222.01023.0349 0 .0106-.00247.0215-.00776.0328-.00564.0113-.012.0208-.01976.0286-.01658.0145-.03669.0219-.05997.0219-.0194 0-.03846-.006-.0568-.0191-.05468-.067-.1136-.11501-.17745-.14358-.06385-.0289-.13793-.043-.2226-.043-.04657 0-.09278.006-.13794.0194-.04515.0134-.08643.0324-.12347.0579-.03986.0272-.07126.06-.09419.0984-.02258.0385-.03422.0822-.03422.13053 0 .0935.0501.16792.15028.2233.0381.0215.07973.0395.12489.0543.04515.0145.10019.0296.1644.0452.08536.0261.1605.0536.22471.0818.0642.0282.12065.0607.16933.0977.11677.0903.17498.20674.17498.3489 0 .0826-.01623.1584-.04868.22685-.0328.0688-.07832.1284-.13653.17885-.05644.0498-.12276.0879-.19861.11466-.07585.0268-.15522.0402-.23777.0402-.06809 0-.13406-.009-.19791-.0272m1.88662-.01821c-.01658-.0176-.0247-.0395-.0247-.0656v-1.5942h-.45402c-.0254 0-.04692-.009-.0642-.0268-.01765-.018-.02647-.0395-.02647-.0649s.00882-.0469.02646-.0642c.01729-.0176.0388-.0265.0642-.0265h1.10068c.02505 0 .04657.009.0642.0272.01729.018.0261.0395.0261.0649 0 .0261-.0088.048-.0261.0649-.01764.0169-.03916.0254-.0642.0254h-.46708v1.5942c0 .0254-.00882.0469-.02646.0649-.01764.018-.03951.0268-.06562.0268-.0254 0-.04621-.008-.0628-.0261m.8853-.01383c-.0092-.0141-.01376-.0293-.01376-.0459 0-.0127.0032-.0268.01023-.0423l.72814-1.68452c.01658-.037.0448-.0554.08467-.0554.0187 0 .03528.005.04974.0145.01446.01.02575.0233.0335.0409l.7239 1.68452c.0071.0166.01024.0303.01024.0423 0 .0166-.0042.0318-.01305.0459-.0088.0141-.02152.025-.03775.0328-.01164.006-.02434.009-.0381.009a.09694.09694 0 01-.05115-.0145c-.01552-.01-.02716-.0236-.03492-.0409l-.22613-.52987h-.83962l-.2233.52846c-.0078.0173-.01906.031-.03423.0413-.01517.0102-.03175.0155-.05045.0155-.01235 0-.02575-.003-.03916-.009-.01658-.008-.02963-.0187-.0388-.0328m1.14793-.72778l-.3429-.80716-.34149.80716zm1.42693.73432c-.08114-.0342-.1524-.0811-.21378-.14146-.06032-.0596-.1076-.12912-.14182-.20885-.03387-.0797-.0508-.1644-.0508-.254v-1.1356c0-.0265.0088-.0483.0268-.0656.018-.0176.03987-.0264.06492-.0264.0254 0 .04692.009.0649.0264.018.0173.02717.0392.02717.0656v1.13137c0 .0649.012.127.03634.1852.02434.0586.0589.10937.10372.15347.04374.0437.09525.0776.15416.10195.0589.0243.1217.0367.18909.0367.06597 0 .1277-.0123.1852-.0367.0575-.0243.1076-.0582.15029-.10195.04198-.043.07408-.0928.097-.14994.02294-.0568.03493-.11747.03599-.18168V7.90656c0-.025.0088-.0466.0268-.0642.018-.0173.03987-.0261.06492-.0261.02646 0 .04833.009.06597.0261.01729.0176.0261.0392.0261.0642v1.14159c0 .0896-.01586.17427-.04832.254-.0321.0797-.07726.14923-.13547.20885-.06033.0603-.13052.10724-.21025.14146-.07973.0339-.16546.0511-.25682.0511-.0935 0-.18098-.0173-.26212-.0511m1.65231.0073c-.01799-.0176-.02716-.0388-.02716-.0642V7.90823c0-.0265.0088-.048.02646-.0649.01764-.0173.03951-.0258.06562-.0258h.49036c.07514 0 .1464.0134.21379.0402.06773.0268.127.0646.17745.11324.0508.0487.08996.10548.11818.17075.02822.0653.04233.1351.04233.21025 0 .0653-.01058.1263-.0321.1838-.02117.0575-.05186.10936-.09172.15628-.03916.0455-.08537.084-.13935.11536-.05433.031-.11219.0526-.17463.0642l.42334.67734c.0078.0145.01164.03.01164.0466 0 .0166-.0049.0325-.01446.0473-.0099.0152-.02258.0261-.0381.0332-.0127.007-.02681.01-.04233.01-.01552 0-.03034-.004-.04445-.0124-.01411-.008-.0254-.0198-.03422-.0342l-.46567-.75741h-.30798v.71366c0 .0254-.0092.0466-.02716.0642-.01799.0176-.0395.0261-.0649.0261s-.04693-.008-.06492-.0261m.55669-.96202c.05186 0 .09984-.009.14464-.0275.0448-.0187.0843-.0444.11818-.0776a.35015.35015 0 00.07655-.1129c.01834-.0423.02716-.0864.02716-.13228 0-.0487-.0092-.0942-.02787-.13653a.34402.34402 0 00-.07726-.11148c-.03316-.0321-.07232-.0571-.11818-.0744-.04586-.0176-.09454-.0265-.14605-.0265h-.39688v.6992zm1.09415.94805c-.0092-.0141-.01376-.0293-.01376-.0459 0-.0127.0032-.0268.01023-.0423l.72814-1.68452c.01658-.037.0448-.0554.08467-.0554.0187 0 .03528.005.04974.0145.01446.01.02575.0233.0335.0409l.7239 1.68452c.0071.0166.01024.0303.01024.0423 0 .0166-.0042.0318-.01305.0459-.0088.0141-.02152.025-.03775.0328-.01164.006-.02434.009-.0381.009a.09694.09694 0 01-.05115-.0145c-.01552-.01-.02716-.0236-.03492-.0409l-.22613-.52987h-.83962l-.2233.52846c-.0078.0173-.01905.031-.03422.0413-.01517.0102-.03175.0155-.05045.0155-.01235 0-.02575-.003-.03916-.009-.01658-.008-.02963-.0187-.03881-.0328m1.14794-.72778l-.3429-.80716-.3415.80716zm1.10578.74162c-.01799-.0176-.0268-.0388-.0268-.0642V7.91105c0-.0254.0088-.0466.0268-.0642.018-.0176.03951-.0261.06491-.0261h.0088c.0088.0007.01764.004.0261.008h.0046l.0028.003.006.003h.0014c0 .001.00036.001.0014.001.0018 0 .0049.002.0088.006a.16631.16631 0 01.02187.0275l1.01741 1.44815V7.90876c0-.0254.0088-.0469.02681-.0649.018-.018.04022-.0272.06668-.0272.02611 0 .04763.009.06491.0265.01693.0173.0254.0395.0254.0656v1.68592c0 .0222-.0071.042-.02117.0582-.0141.0166-.03175.0268-.05327.0307-.0028.001-.0088.001-.01764.001-.02716 0-.05009-.009-.06844-.0275l-.006-.009-.0042-.004-1.02023-1.4584v1.40865c0 .0254-.0092.0466-.02716.0642-.01799.0176-.03951.0261-.06491.0261-.0254 0-.04692-.008-.06491-.0261m2.45009.00123c-.01659-.0176-.0247-.0395-.0247-.0656v-1.5942h-.45402c-.0254 0-.04692-.009-.06421-.0268-.01764-.018-.02646-.0395-.02646-.0649s.0088-.0469.02646-.0642c.01729-.0176.0388-.0265.0642-.0265h1.10068c.02505 0 .04657.009.0642.0272.0173.018.02612.0395.02612.0649 0 .0261-.0088.048-.02611.0649-.01764.0169-.03916.0254-.06421.0254h-.46708v1.5942c0 .0254-.0088.0469-.02646.0649-.01764.018-.03951.0268-.06562.0268-.0254 0-.04621-.008-.0628-.0261m1.65309.01828c-.06385-.018-.12348-.0434-.17886-.0765-.05433-.031-.10196-.0684-.14217-.11183-.04057-.043-.07126-.0896-.09278-.13935a.1091.1091 0 01-.01164-.0497c0-.0311.01658-.0561.04974-.0759.01552-.008.02893-.0116.04057-.0116.02752 0 .05574.0187.08467.0554.03598.0762.097.13723.18274.18415.0836.0455.17497.0684.27446.0684a.53577.53577 0 00.15593-.0233c.0508-.0155.09596-.0388.13581-.0702.0427-.0328.07655-.0727.1009-.1189.02399-.0462.03634-.0984.03634-.15697 0-.0526-.012-.0977-.03563-.13547-.024-.0381-.05821-.0716-.10301-.1009a.67037.67037 0 00-.12136-.06c-.04374-.0162-.10336-.0374-.17921-.0628-.16863-.0399-.29845-.0938-.38982-.16193-.11994-.0885-.17956-.20037-.17956-.3355 0-.073.01587-.1404.04798-.20213.0321-.0621.07655-.11465.133-.1584.05361-.042.1143-.0744.18238-.0974.06809-.0226.13723-.0342.20743-.0342.11571 0 .22084.0229.31503.0688.09842.0494.17251.11712.2219.20285.0071.0106.01023.0222.01023.0349 0 .0106-.0025.0215-.0078.0328-.0056.0113-.01199.0208-.01976.0286-.01658.0145-.03669.0219-.05997.0219-.0194 0-.03845-.006-.0568-.0191-.05468-.067-.1136-.11501-.17745-.14358-.06385-.0289-.13793-.043-.2226-.043-.04692 0-.09278.006-.13794.0194-.04515.0134-.08643.0324-.12347.0579-.03986.0272-.07126.06-.09419.0984-.02258.0385-.03422.0822-.03422.13053 0 .0935.0501.16792.15029.2233.0381.0215.07973.0395.12488.0543.04516.0145.10019.0296.1644.0452.08536.0261.1605.0536.22471.0818.06421.0282.12065.0607.16934.0977.11677.0903.17497.20674.17497.3489 0 .0826-.01623.1584-.04868.22685-.0328.0688-.07832.1284-.13652.17885-.05644.0498-.12277.0879-.19861.11466-.07585.0268-.15523.0402-.23778.0402-.06809 0-.13405-.009-.1979-.0272" fill="#4F3018"/></svg>